{
  "accessors": [
    {
      "bufferView": 2,
      "componentType": 5126,
      "count": 65533,
      "max": [
        0.06047699972987175,
        -0.012102000415325165,
        0.059344999492168427
      ],
      "min": [
        -0.06762900203466415,
        -0.12207499891519547,
        -0.06696899980306625
      ],
      "type": "VEC3"
    },
    {
      "bufferView": 2,
      "byteOffset": 786396,
      "componentType": 5126,
      "count": 65533,
      "max": [
        0.9991865754127502,
        0.9999850392341614,
        0.9999743700027466
      ],
      "min": [
        -0.9998878836631775,
        -0.9999181032180786,
        -0.9999586939811707
      ],
      "type": "VEC3"
    },
    {
      "bufferView": 1,
      "componentType": 5126,
      "count": 65533,
      "max": [
        0.9996839761734009,
        1.0
      ],
      "min": [
        9.000000318337698e-06,
        8.800000068731606e-05
      ],
      "type": "VEC2"
    },
    {
      "bufferView": 0,
      "componentType": 5125,
      "count": 264972,
      "type": "SCALAR"
    },
    {
      "bufferView": 2,
      "byteOffset": 1572792,
      "componentType": 5126,
      "count": 64347,
      "max": [
        0.06047699972987175,
        -0.01216300018131733,
        0.059331998229026794
      ],
      "min": [
        -0.06730099767446518,
        -0.12207499891519547,
        -0.07053100317716599
      ],
      "type": "VEC3"
    },
    {
      "bufferView": 2,
      "byteOffset": 2344956,
      "componentType": 5126,
      "count": 64347,
      "max": [
        0.9998690485954285,
        0.9999629259109497,
        0.9999978542327881
      ],
      "min": [
        -0.9999590516090393,
        -0.9999181032180786,
        -0.9999886155128479
      ],
      "type": "VEC3"
    },
    {
      "bufferView": 1,
      "byteOffset": 524264,
      "componentType": 5126,
      "count": 64347,
      "max": [
        0.9999799728393555,
        0.9999989867210388
      ],
      "min": [
        3.999999989900971e-06,
        5.500000042957254e-05
      ],
      "type": "VEC2"
    },
    {
      "bufferView": 0,
      "byteOffset": 1059888,
      "componentType": 5125,
      "count": 185028,
      "type": "SCALAR"
    }
  ],
  "asset": {
    "extras": {
      "author": "NASA Astromaterials 3D (https://sketchfab.com/Astromaterials3D)",
      "license": "CC0-1.0 (http://creativecommons.org/publicdomain/zero/1.0/)",
      "source": "https://sketchfab.com/3d-models/antarctic-meteorite-sample-gro-171020-e02cf2d836fc4178b54763db2094ee5b",
      "title": "Antarctic Meteorite Sample GRO 17102,0"
    },
    "generator": "Sketchfab-13.74.0",
    "version": "2.0"
  },
  "bufferViews": [
    {
      "buffer": 0,
      "byteLength": 1800000,
      "name": "floatBufferViews",
      "target": 34963
    },
    {
      "buffer": 0,
      "byteLength": 1039040,
      "byteOffset": 1800000,
      "byteStride": 8,
      "name": "floatBufferViews",
      "target": 34962
    },
    {
      "buffer": 0,
      "byteLength": 3117120,
      "byteOffset": 2839040,
      "byteStride": 12,
      "name": "floatBufferViews",
      "target": 34962
    }
  ],
  "buffers": [
    {
      "byteLength": 5956160,
      "uri": "scene.bin"
    }
  ],
  "images": [
    {
      "uri": "textures/GRO17102-0_SFM_Web-Resolution-Model_Coordinate-Unregistered_baseColor.jpeg"
    }
  ],
  "materials": [
    {
      "doubleSided": true,
      "name": "GRO17102-0_SFM_Web-Resolution-Model_Coordinate-Unregistered",
      "pbrMetallicRoughness": {
        "baseColorTexture": {
          "index": 0
        },
        "metallicFactor": 0.0
      }
    }
  ],
  "meshes": [
    {
      "name": "Object_0",
      "primitives": [
        {
          "attributes": {
            "NORMAL": 1,
            "POSITION": 0,
            "TEXCOORD_0": 2
          },
          "indices": 3,
          "material": 0,
          "mode": 4
        }
      ]
    },
    {
      "name": "Object_1",
      "primitives": [
        {
          "attributes": {
            "NORMAL": 5,
            "POSITION": 4,
            "TEXCOORD_0": 6
          },
          "indices": 7,
          "material": 0,
          "mode": 4
        }
      ]
    }
  ],
  "nodes": [
    {
      "children": [
        1
      ],
      "matrix": [
        1.0,
        0.0,
        0.0,
        0.0,
        0.0,
        2.220446049250313e-16,
        -1.0,
        0.0,
        0.0,
        1.0,
        2.220446049250313e-16,
        0.0,
        0.0,
        0.0,
        0.0,
        1.0
      ],
      "name": "Sketchfab_model"
    },
    {
      "children": [
        2,
        3
      ],
      "name": "GRO17102-0_SFM_Web-Resolution-Model_Coordinate-Unregistered.obj.cleaner.materialmerger.gles"
    },
    {
      "mesh": 0,
      "name": "Object_2"
    },
    {
      "mesh": 1,
      "name": "Object_3"
    }
  ],
  "samplers": [
    {
      "magFilter": 9729,
      "minFilter": 9987,
      "wrapS": 10497,
      "wrapT": 10497
    }
  ],
  "scene": 0,
  "scenes": [
    {
      "name": "Sketchfab_Scene",
      "nodes": [
        0
      ]
    }
  ],
  "textures": [
    {
      "sampler": 0,
      "source": 0
    }
  ]
}
