{
  "accessors": [
    {
      "bufferView": 2,
      "componentType": 5126,
      "count": 31481,
      "max": [
        10.572070121765137,
        6.946902751922607,
        24.143295288085938
      ],
      "min": [
        -10.417656898498535,
        -7.395589351654053,
        -25.04895782470703
      ],
      "type": "VEC3"
    },
    {
      "bufferView": 2,
      "byteOffset": 377772,
      "componentType": 5126,
      "count": 31481,
      "max": [
        0.9998515844345093,
        0.9999849796295166,
        0.9996656179428101
      ],
      "min": [
        -0.9999946355819702,
        -0.9999816417694092,
        -0.9983491897583008
      ],
      "type": "VEC3"
    },
    {
      "bufferView": 3,
      "componentType": 5126,
      "count": 31481,
      "max": [
        0.999997079372406,
        0.9999261498451233,
        0.9999956488609314,
        1.0
      ],
      "min": [
        -0.999878466129303,
        -0.999909520149231,
        -0.9884562492370605,
        1.0
      ],
      "type": "VEC4"
    },
    {
      "bufferView": 1,
      "componentType": 5126,
      "count": 31481,
      "max": [
        0.9941917657852173,
        0.9964863657951355
      ],
      "min": [
        0.003773321397602558,
        0.0035333645064383745
      ],
      "type": "VEC2"
    },
    {
      "bufferView": 1,
      "byteOffset": 251848,
      "componentType": 5126,
      "count": 31481,
      "max": [
        0.9941917657852173,
        0.9964863657951355
      ],
      "min": [
        0.003773321397602558,
        0.0035333645064383745
      ],
      "type": "VEC2"
    },
    {
      "bufferView": 1,
      "byteOffset": 503696,
      "componentType": 5126,
      "count": 31481,
      "max": [
        0.9941917657852173,
        0.9964863657951355
      ],
      "min": [
        0.003773321397602558,
        0.0035333645064383745
      ],
      "type": "VEC2"
    },
    {
      "bufferView": 0,
      "componentType": 5125,
      "count": 183120,
      "type": "SCALAR"
    }
  ],
  "asset": {
    "extras": {
      "author": "Kriss007 (https://sketchfab.com/Kriss007)",
      "license": "CC-BY-4.0 (http://creativecommons.org/licenses/by/4.0/)",
      "source": "https://sketchfab.com/3d-models/asteroid-9a7ceba06cee4f96abf2233c79d6e36d",
      "title": "Asteroid"
    },
    "generator": "Sketchfab-12.68.0",
    "version": "2.0"
  },
  "bufferViews": [
    {
      "buffer": 0,
      "byteLength": 732480,
      "name": "floatBufferViews",
      "target": 34963
    },
    {
      "buffer": 0,
      "byteLength": 755544,
      "byteOffset": 732480,
      "byteStride": 8,
      "name": "floatBufferViews",
      "target": 34962
    },
    {
      "buffer": 0,
      "byteLength": 755544,
      "byteOffset": 1488024,
      "byteStride": 12,
      "name": "floatBufferViews",
      "target": 34962
    },
    {
      "buffer": 0,
      "byteLength": 503696,
      "byteOffset": 2243568,
      "byteStride": 16,
      "name": "floatBufferViews",
      "target": 34962
    }
  ],
  "buffers": [
    {
      "byteLength": 2747264,
      "uri": "scene.bin"
    }
  ],
  "images": [
    {
      "uri": "textures/Material_baseColor.png"
    },
    {
      "uri": "textures/Material_metallicRoughness.png"
    },
    {
      "uri": "textures/Material_emissive.png"
    },
    {
      "uri": "textures/Material_normal.png"
    }
  ],
  "materials": [
    {
      "doubleSided": true,
      "emissiveFactor": [
        1.0,
        1.0,
        1.0
      ],
      "emissiveTexture": {
        "index": 2
      },
      "name": "Material",
      "normalTexture": {
        "index": 3
      },
      "pbrMetallicRoughness": {
        "baseColorTexture": {
          "index": 0
        },
        "metallicRoughnessTexture": {
          "index": 1
        }
      }
    }
  ],
  "meshes": [
    {
      "name": "Object_0",
      "primitives": [
        {
          "attributes": {
            "NORMAL": 1,
            "POSITION": 0,
            "TANGENT": 2,
            "TEXCOORD_0": 3,
            "TEXCOORD_1": 4,
            "TEXCOORD_2": 5
          },
          "indices": 6,
          "material": 0,
          "mode": 4
        }
      ]
    }
  ],
  "nodes": [
    {
      "children": [
        1
      ],
      "matrix": [
        1.0,
        0.0,
        0.0,
        0.0,
        0.0,
        2.220446049250313e-16,
        -1.0,
        0.0,
        0.0,
        1.0,
        2.220446049250313e-16,
        0.0,
        0.0,
        0.0,
        0.0,
        1.0
      ],
      "name": "Sketchfab_model"
    },
    {
      "children": [
        2
      ],
      "name": "root"
    },
    {
      "children": [
        3
      ],
      "matrix": [
        1.0,
        0.0,
        0.0,
        0.0,
        0.0,
        2.220446049250313e-16,
        1.0,
        0.0,
        0.0,
        -1.0,
        2.220446049250313e-16,
        0.0,
        0.0,
        0.0,
        0.0,
        1.0
      ],
      "name": "GLTF_SceneRootNode"
    },
    {
      "children": [
        4
      ],
      "matrix": [
        1.0,
        0.0,
        0.0,
        0.0,
        0.0,
        1.0,
        0.0,
        0.0,
        0.0,
        0.0,
        1.0,
        0.0,
        0.2556648254394531,
        7.395589351654053,
        0.5421762466430664,
        1.0
      ],
      "name": "Asteroid D_0"
    },
    {
      "mesh": 0,
      "name": "Object_4"
    }
  ],
  "samplers": [
    {
      "magFilter": 9729,
      "minFilter": 9987,
      "wrapS": 10497,
      "wrapT": 10497
    }
  ],
  "scene": 0,
  "scenes": [
    {
      "name": "Sketchfab_Scene",
      "nodes": [
        0
      ]
    }
  ],
  "textures": [
    {
      "sampler": 0,
      "source": 0
    },
    {
      "sampler": 0,
      "source": 1
    },
    {
      "sampler": 0,
      "source": 2
    },
    {
      "sampler": 0,
      "source": 3
    }
  ]
}
